<?xml version="1.0" encoding="UTF-8"?>
<svg id="Layer_1" xmlns="http://www.w3.org/2000/svg" version="1.1" viewBox="0 0 1366 768">
  <!-- Generator: Adobe Illustrator 29.6.1, SVG Export Plug-In . SVG Version: 2.1.1 Build 9)  -->
  <defs>
    <style>
      .st0 {
        fill: #0c0c0c;
      }
    </style>
  </defs>
  <path class="st0" d="M539.6,325.5l-47.4,106.9-8.3-106.9h-73.5l-53.1,106.5-1.9-106.5h-106.5l10.2-48.5h-70.1l-10.2,48.5h-35.6l-12.5,58.7h35.6l-11.7,54.6c-10.6,50.4,15.5,80,63.7,80s30.3-2.3,40.2-8.7l12.1-58.4c-11.4,4.2-21.2,5.7-28,5.7-14.4,0-19.7-8.3-16.3-24.6l10.2-48.5h50.5l8.6,130.8h84.9l51.2-103.8,7.6,103.8h84.1l92.9-189.5h-76.6Z"/>
  <path class="st0" d="M706,454c-5.3,10.6-12.5,16.3-25.4,16.3s-22-6.4-23.5-28.8h116.7c4.2-12.9,6.4-25.4,6.4-37.5,0-45.9-30.7-82.2-85.3-82.2s-106.5,53.1-106.5,111.4,34.9,85.7,89.8,85.7,78.1-23.5,94.7-64.8h-67.1ZM692.7,373.3c13.6,0,19.3,8.7,19.3,21.6s0,4.2-.4,6.4h-50.4c5.3-16.7,15.5-28,31.5-28Z"/>
  <polygon class="st0" points="823.6 249.7 767.2 515 837.3 515 893.8 249.7 823.6 249.7"/>
  <polygon class="st0" points="1003.5 325.5 948.9 430.5 939.4 325.5 869.7 325.5 898.9 515 968.2 515 1077.7 325.5 1003.5 325.5"/>
  <path class="st0" d="M1235.9,404c0-45.9-30.7-82.2-85.3-82.2s-106.5,53.1-106.5,111.4,34.9,85.7,89.8,85.7,78.1-23.5,94.7-64.8h-67.1c-5.3,10.6-12.5,16.3-25.4,16.3s-22-6.4-23.5-28.8h116.7c4.2-12.9,6.4-25.4,6.4-37.5ZM1167.3,401.3h-50.4c5.3-16.7,15.5-28,31.5-28s19.3,8.7,19.3,21.6,0,4.2-.4,6.4Z"/>
</svg>
