<svg width="328" height="65" viewBox="0 0 328 65" fill="none" xmlns="http://www.w3.org/2000/svg">
<path d="M64.4337 19.4766C59.8616 19.5379 56.3146 21.5093 54.1423 25.3877V19.9702H44.2529V53.169H54.1423V35.6065C54.5411 31.6668 56.8289 28.8951 60.4319 28.8951C63.7448 28.8951 65.8611 31.2957 65.8611 35.1741V53.1496H75.6944V32.2185C75.6944 24.452 71.2343 19.4766 64.4337 19.4766Z" fill="white"/>
<path d="M123.895 19.4766C118.809 19.5379 115.034 22.0579 113.033 26.9881C111.491 22.3095 107.759 19.4766 102.742 19.4766C98.2257 19.5379 94.682 21.5093 92.5657 25.4491V19.9638H82.7324V53.169H92.5657V36.7132C92.5657 32.2185 94.9095 28.9693 98.6839 28.8338C101.944 28.8338 103.958 31.2344 103.958 35.1741V53.1496H113.848V36.7132C113.848 32.2185 116.132 28.9693 119.85 28.8338C123.111 28.8338 125.168 31.2344 125.168 35.1741V53.1496H135.001V32.2185C134.988 24.452 130.643 19.4766 123.895 19.4766Z" fill="white"/>
<path d="M162.138 36.3458C162.138 40.8373 159.907 44.164 156.136 44.2253C152.991 44.2253 150.99 41.8247 150.99 37.8849V19.9707H141.101V40.9083C141.101 48.6522 145.445 53.5889 152.134 53.5889C156.594 53.5889 160.025 51.6175 162.138 47.6777V53.163H172.028V19.9707H162.138V36.3458Z" fill="white"/>
<path d="M218.106 19.6133C208.546 19.6133 202.042 26.3892 202.042 36.666C202.042 46.7621 208.332 53.5348 218.392 53.5348C224.052 53.5348 228.684 51.3827 231.829 47.6849L226.627 42.1997C224.567 44.4131 221.936 45.5844 219.249 45.5844C215.59 45.5844 212.963 43.3677 211.997 39.428H233.665C234.344 27.2959 228.971 19.6133 218.106 19.6133ZM211.819 33.7104C212.446 29.7094 214.786 26.999 218.221 26.999C221.765 26.999 224.155 29.6449 224.155 33.7104H211.819Z" fill="white"/>
<path d="M261.306 24.3405C259.134 21.2655 255.874 19.5393 251.812 19.5393C243.298 19.5393 237.638 26.2506 237.638 36.4081C237.638 46.6881 243.354 53.5834 252.043 53.5834C255.999 53.5834 259.131 51.8604 261.306 48.7822V53.1704H271.195V7.47168H261.306V24.3405ZM254.443 45.3361C250.329 45.3361 247.583 41.7643 247.52 36.6565C247.576 31.5455 250.322 28.035 254.443 28.035C258.564 28.035 261.306 31.5455 261.306 36.6565C261.306 41.7675 258.56 45.3361 254.443 45.3361V45.3361Z" fill="white"/>
<path d="M26.8725 35.0524C26.8725 40.9023 23.6157 44.4709 18.8128 44.4709C13.9439 44.458 10.4662 40.9088 10.4662 35.0524V13.2921L0.290039 18.2804V35.0589C0.290039 46.4489 7.49277 53.6507 18.7501 53.6507C29.958 53.6507 36.986 46.4489 36.986 35.0589V0.291992L26.866 5.25131L26.8725 35.0524Z" fill="white"/>
<path d="M194.04 45.103C192.21 45.1643 191.182 44.0576 191.182 41.4698V26.7758H198.381V19.7579H191.182V10.5781H184.898C184.922 10.8459 184.938 11.117 184.938 11.3945C184.94 13.4975 184.138 15.525 182.688 17.0777C181.239 18.6304 179.249 19.5958 177.109 19.7837L177.06 19.8224V26.7758H181.345V43.1154C181.345 50.0107 185.63 53.6439 191.564 53.6439C194.474 53.6531 197.329 52.864 199.805 51.3659L197.86 43.9769C196.383 44.6578 195.068 45.103 194.04 45.103Z" fill="white"/>
<path d="M305.94 13.1592L298.358 16.8537C301.563 22.4819 303.27 28.8088 303.322 35.2519C303.374 41.695 301.769 48.0474 298.655 53.7243L306.237 57.422C309.94 50.5983 311.851 42.9804 311.8 35.2539C311.748 27.5275 309.734 19.9348 305.94 13.1592Z" fill="white"/>
<path d="M291.872 20.0264L284.29 23.7305C286.313 27.2496 287.402 31.2084 287.46 35.2456C287.518 39.2829 286.541 43.27 284.62 46.8429L292.201 50.5438C294.708 45.8218 295.992 40.5693 295.939 35.2481C295.886 29.9268 294.499 24.6997 291.898 20.0264H291.872Z" fill="white"/>
<path d="M312.75 60.5911L320.331 64.2921C325.227 55.3641 327.764 45.3795 327.711 35.247C327.658 25.1145 325.017 15.1558 320.028 6.27734L312.446 9.97506C316.84 17.7068 319.171 26.398 319.224 35.2451C319.277 44.0921 317.05 52.8095 312.75 60.5911V60.5911Z" fill="white"/>
</svg>
